<svg width="70" height="70" viewBox="0 0 70 70" fill="none" xmlns="http://www.w3.org/2000/svg">
<circle cx="35" cy="35" r="35" fill="#EFF2F7"/>
<path d="M45.3125 25.2656H41.3281L40.3789 22.6055C40.3133 22.4234 40.1931 22.2661 40.0348 22.1549C39.8764 22.0438 39.6876 21.9842 39.4941 21.9844H30.5059C30.1104 21.9844 29.7559 22.2334 29.624 22.6055L28.6719 25.2656H24.6875C23.3926 25.2656 22.3438 26.3145 22.3438 27.6094V40.9688C22.3438 42.2637 23.3926 43.3125 24.6875 43.3125H45.3125C46.6074 43.3125 47.6562 42.2637 47.6562 40.9688V27.6094C47.6562 26.3145 46.6074 25.2656 45.3125 25.2656ZM45.5469 40.9688C45.5469 41.0977 45.4414 41.2031 45.3125 41.2031H24.6875C24.5586 41.2031 24.4531 41.0977 24.4531 40.9688V27.6094C24.4531 27.4805 24.5586 27.375 24.6875 27.375H30.1572L30.6582 25.9746L31.3291 24.0938H38.668L39.3389 25.9746L39.8398 27.375H45.3125C45.4414 27.375 45.5469 27.4805 45.5469 27.6094V40.9688ZM35 29.25C32.4102 29.25 30.3125 31.3477 30.3125 33.9375C30.3125 36.5273 32.4102 38.625 35 38.625C37.5898 38.625 39.6875 36.5273 39.6875 33.9375C39.6875 31.3477 37.5898 29.25 35 29.25ZM35 36.75C33.4473 36.75 32.1875 35.4902 32.1875 33.9375C32.1875 32.3848 33.4473 31.125 35 31.125C36.5527 31.125 37.8125 32.3848 37.8125 33.9375C37.8125 35.4902 36.5527 36.75 35 36.75Z" fill="black"/>
</svg>
