<svg width="70" height="70" viewBox="0 0 70 70" fill="none" xmlns="http://www.w3.org/2000/svg">
<circle cx="35" cy="35" r="35" fill="#EFF2F7"/>
<path d="M42.8375 27.5C44.1 30.2125 43.8125 33.4125 42.425 36.0125C41.25 38.125 39.5625 39.9125 38.125 41.875C37.5 42.75 36.875 43.6875 36.4125 44.7C36.25 45.0375 36.1375 45.3875 36.0125 45.7375C35.8875 46.0875 35.775 46.4375 35.6625 46.7875C35.55 47.1125 35.4125 47.5 35 47.5C34.5125 47.5 34.375 46.95 34.275 46.575C33.975 45.6625 33.675 44.7875 33.2125 43.95C32.6875 42.9625 32.025 42.05 31.35 41.1625L42.8375 27.5ZM31.4 30.525L27.275 35.425C28.0375 37.0375 29.175 38.4125 30.2625 39.7875C30.525 40.1 30.7875 40.425 31.0375 40.7625L36.25 34.5875L36.2 34.6C34.375 35.225 32.35 34.3 31.625 32.5C31.525 32.2875 31.45 32.0375 31.4 31.7875C31.3312 31.3737 31.3312 30.9513 31.4 30.5375V30.525ZM28.225 25.775L28.2125 25.7875C26.1875 28.35 25.8375 31.9125 27.05 34.925L32.0375 29L31.975 28.9375L28.225 25.775ZM37.775 22.95L33.75 27.7125L33.8 27.7C35.475 27.125 37.35 27.85 38.2 29.375C38.3875 29.725 38.5375 30.1 38.5875 30.475C38.6625 30.95 38.6875 31.2875 38.6 31.75V31.7625L42.6 27.0125C41.5544 25.1117 39.8389 23.6681 37.7875 22.9625L37.775 22.95ZM32.3625 28.6125L37.25 22.8L37.2 22.7875C36.475 22.6 35.7375 22.5 35 22.5C32.5375 22.5 30.2125 23.5625 28.5625 25.3875L28.5375 25.4L32.3625 28.6125Z" fill="black"/>
</svg>
