<svg width="70" height="70" viewBox="0 0 70 70" fill="none" xmlns="http://www.w3.org/2000/svg">
<circle cx="35" cy="35" r="35" fill="#EFF2F7"/>
<path fill-rule="evenodd" clip-rule="evenodd" d="M48.125 44.25C48.125 44.25 50 44.25 50 42.375C50 40.5 48.125 34.875 40.625 34.875C33.125 34.875 31.25 40.5 31.25 42.375C31.25 44.25 33.125 44.25 33.125 44.25H48.125ZM33.1344 42.48V42.4762V42.48ZM33.1662 42.375H48.0837C48.0925 42.374 48.1013 42.3727 48.11 42.3713L48.125 42.3675C48.1213 41.8725 47.8119 40.4363 46.7 39.1425C45.665 37.9294 43.8463 36.75 40.625 36.75C37.4056 36.75 35.5869 37.9312 34.55 39.1425C33.4381 40.4363 33.1269 41.8744 33.125 42.3675C33.1387 42.3701 33.1525 42.3726 33.1662 42.375ZM48.1156 42.48V42.4762V42.48ZM40.625 31.125C41.6196 31.125 42.5734 30.7299 43.2766 30.0267C43.9799 29.3234 44.375 28.3696 44.375 27.375C44.375 26.3804 43.9799 25.4266 43.2766 24.7233C42.5734 24.0201 41.6196 23.625 40.625 23.625C39.6304 23.625 38.6766 24.0201 37.9734 24.7233C37.2701 25.4266 36.875 26.3804 36.875 27.375C36.875 28.3696 37.2701 29.3234 37.9734 30.0267C38.6766 30.7299 39.6304 31.125 40.625 31.125ZM46.25 27.375C46.25 28.1137 46.1045 28.8451 45.8218 29.5276C45.5391 30.2101 45.1248 30.8301 44.6025 31.3525C44.0801 31.8748 43.4601 32.2891 42.7776 32.5718C42.0951 32.8545 41.3637 33 40.625 33C39.8863 33 39.1549 32.8545 38.4724 32.5718C37.7899 32.2891 37.1699 31.8748 36.6475 31.3525C36.1252 30.8301 35.7109 30.2101 35.4282 29.5276C35.1455 28.8451 35 28.1137 35 27.375C35 25.8832 35.5926 24.4524 36.6475 23.3975C37.7024 22.3426 39.1332 21.75 40.625 21.75C42.1168 21.75 43.5476 22.3426 44.6025 23.3975C45.6574 24.4524 46.25 25.8832 46.25 27.375ZM33.005 35.4C32.255 35.1638 31.4818 35.0086 30.6987 34.9369C30.2587 34.895 29.817 34.8744 29.375 34.875C21.875 34.875 20 40.5 20 42.375C20 43.6256 20.6244 44.25 21.875 44.25H29.78C29.502 43.6647 29.3634 43.0229 29.375 42.375C29.375 40.4813 30.0819 38.5462 31.4188 36.93C31.8744 36.3787 32.405 35.8631 33.005 35.4ZM29.225 36.75C26.0975 36.7875 24.3219 37.95 23.3 39.1425C22.1806 40.4438 21.875 41.8856 21.875 42.375H27.5C27.5 40.4156 28.1056 38.4638 29.225 36.75ZM22.8125 28.3125C22.8125 26.8207 23.4051 25.3899 24.46 24.335C25.5149 23.2801 26.9457 22.6875 28.4375 22.6875C29.9293 22.6875 31.3601 23.2801 32.415 24.335C33.4699 25.3899 34.0625 26.8207 34.0625 28.3125C34.0625 29.8043 33.4699 31.2351 32.415 32.29C31.3601 33.3449 29.9293 33.9375 28.4375 33.9375C26.9457 33.9375 25.5149 33.3449 24.46 32.29C23.4051 31.2351 22.8125 29.8043 22.8125 28.3125ZM28.4375 24.5625C27.4429 24.5625 26.4891 24.9576 25.7858 25.6608C25.0826 26.3641 24.6875 27.3179 24.6875 28.3125C24.6875 29.3071 25.0826 30.2609 25.7858 30.9642C26.4891 31.6674 27.4429 32.0625 28.4375 32.0625C29.4321 32.0625 30.3859 31.6674 31.0892 30.9642C31.7924 30.2609 32.1875 29.3071 32.1875 28.3125C32.1875 27.3179 31.7924 26.3641 31.0892 25.6608C30.3859 24.9576 29.4321 24.5625 28.4375 24.5625Z" fill="black"/>
</svg>
